<svg xmlns="http://www.w3.org/2000/svg" width="1200" height="630" viewBox="0 0 1200 630" role="img" aria-labelledby="title desc">
  <title id="title">Bracket Mundial 2026</title>
  <desc id="desc">Predice, simula y comparte tu bracket del Mundial 2026.</desc>
  <defs>
    <linearGradient id="paper" x1="0" y1="0" x2="1" y2="1">
      <stop offset="0%" stop-color="#f4ebd5" />
      <stop offset="100%" stop-color="#ecdfc0" />
    </linearGradient>
    <pattern id="grain" width="12" height="12" patternUnits="userSpaceOnUse">
      <circle cx="2" cy="2" r="1" fill="#d5c19a" opacity="0.18" />
      <circle cx="9" cy="6" r="1" fill="#bda37c" opacity="0.15" />
      <circle cx="5" cy="10" r="1" fill="#c7ae85" opacity="0.14" />
    </pattern>
    <filter id="hardShadow" x="-20%" y="-20%" width="140%" height="140%">
      <feDropShadow dx="8" dy="8" stdDeviation="0" flood-color="#111111" flood-opacity="0.33" />
    </filter>
  </defs>

  <rect width="1200" height="630" fill="url(#paper)" />
  <rect width="1200" height="630" fill="url(#grain)" />

  <rect x="44" y="44" width="1112" height="542" fill="none" stroke="#111111" stroke-width="8" />
  <rect x="60" y="60" width="1080" height="510" fill="none" stroke="#111111" stroke-width="2" />

  <rect x="82" y="82" width="420" height="84" fill="#ff7a00" stroke="#111111" stroke-width="6" filter="url(#hardShadow)" />
  <text x="104" y="138" fill="#111111" font-family="'Bowlby One', 'Archivo Black', sans-serif" font-size="58" letter-spacing="1">BRACKET</text>

  <rect x="82" y="188" width="700" height="96" fill="#e63b2e" stroke="#111111" stroke-width="6" filter="url(#hardShadow)" />
  <text x="108" y="254" fill="#fdf7ea" font-family="'Bowlby One', 'Archivo Black', sans-serif" font-size="72" letter-spacing="1.5">MUNDIAL 2026</text>

  <rect x="82" y="312" width="580" height="66" fill="#1a8f5a" stroke="#111111" stroke-width="5" filter="url(#hardShadow)" />
  <text x="108" y="358" fill="#fdf7ea" font-family="'Archivo', 'Space Mono', sans-serif" font-size="38" font-weight="800" letter-spacing="0.6">PREDICE. SIMULA. COMPARTE.</text>

  <g transform="translate(846,132)" filter="url(#hardShadow)">
    <path d="M106 24h56l-12 76h-32z" fill="#f6bf44" stroke="#111" stroke-width="5" />
    <path d="M72 106h124l-10 90H82z" fill="#ffda66" stroke="#111" stroke-width="6" />
    <rect x="42" y="198" width="184" height="34" fill="#e63b2e" stroke="#111" stroke-width="6" />
    <rect x="22" y="236" width="224" height="38" fill="#3d9de8" stroke="#111" stroke-width="6" />
    <path d="M72 106c-34 0-52-20-52-46 0-18 14-36 32-36 9 0 16 4 20 10 4-6 11-10 20-10 17 0 30 18 30 36 0 26-18 46-50 46z" fill="#f6bf44" stroke="#111" stroke-width="6" />
    <path d="M196 106c34 0 52-20 52-46 0-18-14-36-32-36-9 0-16 4-20 10-4-6-11-10-20-10-17 0-30 18-30 36 0 26 18 46 50 46z" fill="#f6bf44" stroke="#111" stroke-width="6" />
  </g>

  <g transform="translate(820,420)" filter="url(#hardShadow)">
    <circle cx="140" cy="90" r="86" fill="#f7f2e6" stroke="#111" stroke-width="7" />
    <polygon points="140,32 166,52 156,82 124,82 114,52" fill="#111" />
    <polygon points="86,82 114,82 122,108 102,128 76,112" fill="#111" />
    <polygon points="194,82 166,82 158,108 178,128 204,112" fill="#111" />
    <path d="M58 140l26-18 22 12-4 30-28 10z" fill="#111" />
    <path d="M222 140l-26-18-22 12 4 30 28 10z" fill="#111" />
    <path d="M114 154h52l8 30-34 20-34-20z" fill="#111" />
  </g>

  <text x="84" y="522" fill="#111111" font-family="'Space Mono', 'Archivo', sans-serif" font-size="28" font-weight="700">bracketmundial.com</text>
</svg>
